<?xml version="1.0" standalone="no"?>
<!DOCTYPE svg PUBLIC "-//W3C//DTD SVG 20010904//EN"
 "http://www.w3.org/TR/2001/REC-SVG-20010904/DTD/svg10.dtd">
<svg version="1.0" xmlns="http://www.w3.org/2000/svg"
 width="475.000000pt" height="467.000000pt" viewBox="0 0 475.000000 467.000000"
 preserveAspectRatio="xMidYMid meet">

<g transform="translate(0.000000,467.000000) scale(0.100000,-0.100000)"
fill="#000000 " stroke="none">
<path d="M1843 4619 c-757 -88 -1381 -601 -1667 -1372 -130 -350 -173 -789
-111 -1141 9 -49 13 -108 10 -130 -10 -66 13 -329 40 -463 59 -292 187 -589
345 -802 203 -275 455 -437 798 -514 84 -18 128 -21 327 -22 l230 -1 85 -33
c110 -43 279 -86 404 -101 153 -20 430 -8 586 25 416 87 855 315 1148 599 318
307 514 688 587 1143 14 83 29 163 34 177 21 53 53 246 60 361 29 448 -116
915 -397 1282 -62 81 -188 208 -279 282 -165 134 -445 295 -638 366 -55 20
-138 56 -185 80 -266 135 -591 234 -872 264 -112 13 -399 12 -505 0z m487 -60
c52 -6 148 -22 213 -35 125 -26 385 -108 402 -126 7 -8 3 -9 -15 -4 -53 14
-347 18 -462 7 -372 -36 -686 -132 -1063 -324 -424 -216 -642 -412 -908 -818
-156 -238 -273 -496 -351 -779 -15 -54 -16 -53 -12 105 20 766 489 1519 1131
1816 322 149 674 201 1065 158z m505 -219 c116 -13 227 -35 339 -66 176 -50
422 -241 647 -504 468 -545 729 -1167 729 -1734 0 -102 -3 -124 -31 -203 -66
-192 -217 -457 -369 -648 -295 -372 -732 -676 -1195 -831 -212 -70 -348 -95
-570 -101 -104 -2 -208 -1 -229 4 l-40 9 80 33 c161 66 404 219 404 254 0 35
-52 19 -137 -42 -104 -74 -273 -161 -391 -201 l-90 -30 -93 24 c-114 30 -258
80 -319 111 -149 77 -470 401 -610 615 -143 221 -252 558 -290 895 -27 243 -9
603 44 893 12 67 20 125 17 127 -9 10 -58 5 -74 -7 -17 -13 -52 -193 -79 -403
-19 -153 -16 -554 5 -700 62 -426 205 -763 438 -1035 40 -47 79 -94 88 -105
15 -19 15 -19 -4 -5 -11 8 -59 47 -106 87 -438 367 -723 796 -819 1234 -23
106 22 383 102 628 153 465 517 986 843 1207 397 268 852 447 1255 493 107 12
350 13 455 1z m939 -343 c298 -197 498 -417 649 -717 113 -224 174 -433 197
-675 20 -215 10 -252 -25 -90 -99 463 -420 1026 -811 1422 -72 73 -128 133
-126 133 3 0 55 -33 116 -73z m-3413 -2652 c239 -364 657 -743 1021 -926 54
-27 130 -71 170 -98 40 -26 89 -57 108 -67 l35 -19 -110 -3 c-181 -5 -383 37
-550 113 -332 151 -615 494 -756 916 -40 119 -89 327 -89 372 1 13 26 -27 63
-98 34 -66 83 -152 108 -190z m4083 84 c-71 -200 -221 -453 -366 -619 -333
-380 -862 -663 -1351 -720 -138 -17 -350 -8 -480 19 -123 26 -321 91 -310 102
4 4 62 2 128 -6 656 -78 1394 199 1942 729 180 173 366 405 437 544 28 55 28
30 0 -49z"/>
</g>
</svg>
